<mxfile host="app.diagrams.net" modified="2022-09-21T02:33:47.494Z" agent="5.0 (Macintosh; Intel Mac OS X 10_15_7) AppleWebKit/605.1.15 (KHTML, like Gecko) Version/15.6.1 Safari/605.1.15" etag="0bWmM_2IxNFMAa9ShXru" version="20.3.3" type="github">
  <diagram id="y8HDOHUu3PEGii4tPg3m" name="第 1 页">
    <mxGraphModel dx="2437" dy="1579" grid="0" gridSize="10" guides="1" tooltips="1" connect="1" arrows="1" fold="1" page="0" pageScale="1" pageWidth="827" pageHeight="1169" math="0" shadow="0">
      <root>
        <mxCell id="0" />
        <mxCell id="1" parent="0" />
        <mxCell id="NzFtADgsl6NsJxW6FuMH-5" value="" style="edgeStyle=orthogonalEdgeStyle;rounded=0;orthogonalLoop=1;jettySize=auto;html=1;entryX=0;entryY=0;entryDx=0;entryDy=32.9921240919884;entryPerimeter=0;strokeColor=#0000CC;" edge="1" parent="1" source="NzFtADgsl6NsJxW6FuMH-1" target="NzFtADgsl6NsJxW6FuMH-3">
          <mxGeometry relative="1" as="geometry">
            <mxPoint x="468" y="333" as="targetPoint" />
          </mxGeometry>
        </mxCell>
        <mxCell id="NzFtADgsl6NsJxW6FuMH-36" style="edgeStyle=none;rounded=0;orthogonalLoop=1;jettySize=auto;html=1;entryX=0;entryY=0;entryDx=64;entryDy=50;entryPerimeter=0;strokeColor=#0000CC;fontColor=#000000;" edge="1" parent="1" source="NzFtADgsl6NsJxW6FuMH-1" target="NzFtADgsl6NsJxW6FuMH-35">
          <mxGeometry relative="1" as="geometry" />
        </mxCell>
        <mxCell id="NzFtADgsl6NsJxW6FuMH-1" value="LogParser" style="labelPosition=center;verticalLabelPosition=middle;align=center;html=1;shape=mxgraph.basic.shaded_button;dx=10;fillColor=#E6E6E6;strokeColor=none;fontColor=#000000;" vertex="1" parent="1">
          <mxGeometry x="267" y="303" width="121" height="60" as="geometry" />
        </mxCell>
        <mxCell id="NzFtADgsl6NsJxW6FuMH-3" value="__init__" style="whiteSpace=wrap;html=1;shape=mxgraph.basic.isocube;isoAngle=15;fontColor=#000000;" vertex="1" parent="1">
          <mxGeometry x="608" y="508" width="100" height="57" as="geometry" />
        </mxCell>
        <mxCell id="NzFtADgsl6NsJxW6FuMH-28" style="edgeStyle=none;rounded=0;orthogonalLoop=1;jettySize=auto;html=1;exitX=0;exitY=0;exitDx=0;exitDy=30;exitPerimeter=0;strokeColor=#0000CC;fontColor=#000000;" edge="1" parent="1" source="NzFtADgsl6NsJxW6FuMH-8">
          <mxGeometry relative="1" as="geometry">
            <mxPoint x="708" y="536" as="targetPoint" />
          </mxGeometry>
        </mxCell>
        <mxCell id="NzFtADgsl6NsJxW6FuMH-57" style="edgeStyle=none;rounded=0;orthogonalLoop=1;jettySize=auto;html=1;exitX=0;exitY=0;exitDx=0;exitDy=15;exitPerimeter=0;entryX=0.676;entryY=0.98;entryDx=0;entryDy=0;entryPerimeter=0;strokeColor=#00FF00;fontColor=#000000;" edge="1" parent="1" source="NzFtADgsl6NsJxW6FuMH-8" target="NzFtADgsl6NsJxW6FuMH-37">
          <mxGeometry relative="1" as="geometry" />
        </mxCell>
        <mxCell id="NzFtADgsl6NsJxW6FuMH-59" value="depth = depth -2&amp;nbsp;" style="edgeLabel;html=1;align=center;verticalAlign=middle;resizable=0;points=[];fontColor=#000000;" vertex="1" connectable="0" parent="NzFtADgsl6NsJxW6FuMH-57">
          <mxGeometry x="-0.5888" relative="1" as="geometry">
            <mxPoint x="-82" y="63" as="offset" />
          </mxGeometry>
        </mxCell>
        <mxCell id="NzFtADgsl6NsJxW6FuMH-8" value="&lt;font color=&quot;#000000&quot;&gt;&lt;span style=&quot;caret-color: rgb(0, 0, 0);&quot;&gt;indir&lt;/span&gt;&lt;/font&gt;" style="shape=cube;whiteSpace=wrap;html=1;boundedLbl=1;backgroundOutline=1;darkOpacity=0.05;darkOpacity2=0.1;fontColor=#67AB9F;" vertex="1" parent="1">
          <mxGeometry x="903" y="448" width="108" height="50" as="geometry" />
        </mxCell>
        <mxCell id="NzFtADgsl6NsJxW6FuMH-26" style="edgeStyle=none;rounded=0;orthogonalLoop=1;jettySize=auto;html=1;exitX=0;exitY=0;exitDx=10;exitDy=40;exitPerimeter=0;entryX=1;entryY=0.5;entryDx=0;entryDy=0;entryPerimeter=0;strokeColor=#0000CC;fontColor=#000000;" edge="1" parent="1" source="NzFtADgsl6NsJxW6FuMH-9" target="NzFtADgsl6NsJxW6FuMH-3">
          <mxGeometry relative="1" as="geometry" />
        </mxCell>
        <mxCell id="NzFtADgsl6NsJxW6FuMH-9" value="&lt;font color=&quot;#000000&quot;&gt;&lt;span style=&quot;caret-color: rgb(0, 0, 0);&quot;&gt;self&lt;/span&gt;&lt;/font&gt;" style="shape=cube;whiteSpace=wrap;html=1;boundedLbl=1;backgroundOutline=1;darkOpacity=0.05;darkOpacity2=0.1;fontColor=#67AB9F;" vertex="1" parent="1">
          <mxGeometry x="853" y="298" width="108" height="50" as="geometry" />
        </mxCell>
        <mxCell id="NzFtADgsl6NsJxW6FuMH-27" style="edgeStyle=none;rounded=0;orthogonalLoop=1;jettySize=auto;html=1;exitX=0;exitY=0;exitDx=10;exitDy=40;exitPerimeter=0;strokeColor=#0000CC;fontColor=#000000;" edge="1" parent="1" source="NzFtADgsl6NsJxW6FuMH-10">
          <mxGeometry relative="1" as="geometry">
            <mxPoint x="706" y="537" as="targetPoint" />
          </mxGeometry>
        </mxCell>
        <mxCell id="NzFtADgsl6NsJxW6FuMH-65" style="edgeStyle=none;rounded=0;orthogonalLoop=1;jettySize=auto;html=1;exitX=0;exitY=0;exitDx=0;exitDy=15;exitPerimeter=0;entryX=0.315;entryY=0.9;entryDx=0;entryDy=0;entryPerimeter=0;strokeColor=#00FF00;fontColor=#000000;" edge="1" parent="1" source="NzFtADgsl6NsJxW6FuMH-10" target="NzFtADgsl6NsJxW6FuMH-44">
          <mxGeometry relative="1" as="geometry" />
        </mxCell>
        <mxCell id="NzFtADgsl6NsJxW6FuMH-10" value="&lt;font color=&quot;#000000&quot;&gt;log_format&lt;/font&gt;" style="shape=cube;whiteSpace=wrap;html=1;boundedLbl=1;backgroundOutline=1;darkOpacity=0.05;darkOpacity2=0.1;fontColor=#67AB9F;" vertex="1" parent="1">
          <mxGeometry x="887" y="373" width="108" height="50" as="geometry" />
        </mxCell>
        <mxCell id="NzFtADgsl6NsJxW6FuMH-29" style="edgeStyle=none;rounded=0;orthogonalLoop=1;jettySize=auto;html=1;exitX=0;exitY=0;exitDx=0;exitDy=15;exitPerimeter=0;strokeColor=#0000CC;fontColor=#000000;" edge="1" parent="1" source="NzFtADgsl6NsJxW6FuMH-11">
          <mxGeometry relative="1" as="geometry">
            <mxPoint x="715" y="529" as="targetPoint" />
          </mxGeometry>
        </mxCell>
        <mxCell id="NzFtADgsl6NsJxW6FuMH-63" style="edgeStyle=none;rounded=0;orthogonalLoop=1;jettySize=auto;html=1;exitX=0;exitY=0;exitDx=0;exitDy=0;exitPerimeter=0;entryX=0;entryY=0;entryDx=64;entryDy=50;entryPerimeter=0;strokeColor=#00FF00;fontColor=#000000;" edge="1" parent="1" source="NzFtADgsl6NsJxW6FuMH-11" target="NzFtADgsl6NsJxW6FuMH-42">
          <mxGeometry relative="1" as="geometry" />
        </mxCell>
        <mxCell id="NzFtADgsl6NsJxW6FuMH-11" value="&lt;font color=&quot;#000000&quot;&gt;&lt;span style=&quot;caret-color: rgb(0, 0, 0);&quot;&gt;outdir&lt;/span&gt;&lt;/font&gt;" style="shape=cube;whiteSpace=wrap;html=1;boundedLbl=1;backgroundOutline=1;darkOpacity=0.05;darkOpacity2=0.1;fontColor=#67AB9F;" vertex="1" parent="1">
          <mxGeometry x="900" y="523" width="108" height="50" as="geometry" />
        </mxCell>
        <mxCell id="NzFtADgsl6NsJxW6FuMH-30" style="edgeStyle=none;rounded=0;orthogonalLoop=1;jettySize=auto;html=1;exitX=0;exitY=0;exitDx=0;exitDy=15;exitPerimeter=0;strokeColor=#0000CC;fontColor=#000000;" edge="1" parent="1" source="NzFtADgsl6NsJxW6FuMH-12">
          <mxGeometry relative="1" as="geometry">
            <mxPoint x="719" y="530" as="targetPoint" />
          </mxGeometry>
        </mxCell>
        <mxCell id="NzFtADgsl6NsJxW6FuMH-58" style="edgeStyle=none;rounded=0;orthogonalLoop=1;jettySize=auto;html=1;exitX=0;exitY=0;exitDx=0;exitDy=15;exitPerimeter=0;strokeColor=#00FF00;fontColor=#000000;" edge="1" parent="1" source="NzFtADgsl6NsJxW6FuMH-12" target="NzFtADgsl6NsJxW6FuMH-38">
          <mxGeometry relative="1" as="geometry" />
        </mxCell>
        <mxCell id="NzFtADgsl6NsJxW6FuMH-12" value="&lt;font color=&quot;#000000&quot;&gt;&lt;span style=&quot;caret-color: rgb(0, 0, 0);&quot;&gt;depth&lt;/span&gt;&lt;/font&gt;" style="shape=cube;whiteSpace=wrap;html=1;boundedLbl=1;backgroundOutline=1;darkOpacity=0.05;darkOpacity2=0.1;fontColor=#67AB9F;" vertex="1" parent="1">
          <mxGeometry x="903" y="591" width="108" height="50" as="geometry" />
        </mxCell>
        <mxCell id="NzFtADgsl6NsJxW6FuMH-31" style="edgeStyle=none;rounded=0;orthogonalLoop=1;jettySize=auto;html=1;exitX=0;exitY=0;exitDx=0;exitDy=15;exitPerimeter=0;strokeColor=#0000CC;fontColor=#000000;" edge="1" parent="1" source="NzFtADgsl6NsJxW6FuMH-13">
          <mxGeometry relative="1" as="geometry">
            <mxPoint x="714" y="526" as="targetPoint" />
          </mxGeometry>
        </mxCell>
        <mxCell id="NzFtADgsl6NsJxW6FuMH-60" style="edgeStyle=none;rounded=0;orthogonalLoop=1;jettySize=auto;html=1;exitX=0;exitY=0;exitDx=44;exitDy=0;exitPerimeter=0;strokeColor=#00FF00;fontColor=#000000;" edge="1" parent="1" source="NzFtADgsl6NsJxW6FuMH-13" target="NzFtADgsl6NsJxW6FuMH-39">
          <mxGeometry relative="1" as="geometry" />
        </mxCell>
        <mxCell id="NzFtADgsl6NsJxW6FuMH-13" value="&lt;font color=&quot;#000000&quot;&gt;&lt;span style=&quot;caret-color: rgb(0, 0, 0);&quot;&gt;st&lt;/span&gt;&lt;/font&gt;" style="shape=cube;whiteSpace=wrap;html=1;boundedLbl=1;backgroundOutline=1;darkOpacity=0.05;darkOpacity2=0.1;fontColor=#67AB9F;" vertex="1" parent="1">
          <mxGeometry x="844" y="659" width="108" height="50" as="geometry" />
        </mxCell>
        <mxCell id="NzFtADgsl6NsJxW6FuMH-32" style="edgeStyle=none;rounded=0;orthogonalLoop=1;jettySize=auto;html=1;exitX=0;exitY=0;exitDx=0;exitDy=15;exitPerimeter=0;strokeColor=#0000CC;fontColor=#000000;" edge="1" parent="1" source="NzFtADgsl6NsJxW6FuMH-14">
          <mxGeometry relative="1" as="geometry">
            <mxPoint x="710" y="523" as="targetPoint" />
          </mxGeometry>
        </mxCell>
        <mxCell id="NzFtADgsl6NsJxW6FuMH-61" style="edgeStyle=none;rounded=0;orthogonalLoop=1;jettySize=auto;html=1;exitX=0;exitY=0;exitDx=44;exitDy=0;exitPerimeter=0;entryX=1;entryY=1;entryDx=0;entryDy=0;entryPerimeter=0;strokeColor=#00FF00;fontColor=#000000;" edge="1" parent="1" source="NzFtADgsl6NsJxW6FuMH-14" target="NzFtADgsl6NsJxW6FuMH-40">
          <mxGeometry relative="1" as="geometry" />
        </mxCell>
        <mxCell id="NzFtADgsl6NsJxW6FuMH-14" value="&lt;font color=&quot;#000000&quot;&gt;&lt;span style=&quot;caret-color: rgb(0, 0, 0);&quot;&gt;maxChild&lt;/span&gt;&lt;/font&gt;" style="shape=cube;whiteSpace=wrap;html=1;boundedLbl=1;backgroundOutline=1;darkOpacity=0.05;darkOpacity2=0.1;fontColor=#67AB9F;" vertex="1" parent="1">
          <mxGeometry x="834" y="738" width="108" height="50" as="geometry" />
        </mxCell>
        <mxCell id="NzFtADgsl6NsJxW6FuMH-33" style="edgeStyle=none;rounded=0;orthogonalLoop=1;jettySize=auto;html=1;exitX=0;exitY=0;exitDx=0;exitDy=15;exitPerimeter=0;strokeColor=#0000CC;fontColor=#000000;" edge="1" parent="1" source="NzFtADgsl6NsJxW6FuMH-15">
          <mxGeometry relative="1" as="geometry">
            <mxPoint x="709" y="528" as="targetPoint" />
          </mxGeometry>
        </mxCell>
        <mxCell id="NzFtADgsl6NsJxW6FuMH-66" style="edgeStyle=none;rounded=0;orthogonalLoop=1;jettySize=auto;html=1;exitX=0;exitY=0;exitDx=44;exitDy=0;exitPerimeter=0;entryX=0;entryY=0;entryDx=20;entryDy=50;entryPerimeter=0;strokeColor=#00FF00;fontColor=#000000;" edge="1" parent="1" source="NzFtADgsl6NsJxW6FuMH-15" target="NzFtADgsl6NsJxW6FuMH-45">
          <mxGeometry relative="1" as="geometry" />
        </mxCell>
        <mxCell id="NzFtADgsl6NsJxW6FuMH-15" value="&lt;font color=&quot;#000000&quot;&gt;&lt;span style=&quot;caret-color: rgb(0, 0, 0);&quot;&gt;rex&lt;/span&gt;&lt;/font&gt;" style="shape=cube;whiteSpace=wrap;html=1;boundedLbl=1;backgroundOutline=1;darkOpacity=0.05;darkOpacity2=0.1;fontColor=#67AB9F;" vertex="1" parent="1">
          <mxGeometry x="797" y="804" width="108" height="50" as="geometry" />
        </mxCell>
        <mxCell id="NzFtADgsl6NsJxW6FuMH-34" style="edgeStyle=none;rounded=0;orthogonalLoop=1;jettySize=auto;html=1;exitX=0;exitY=0;exitDx=44;exitDy=0;exitPerimeter=0;strokeColor=#0000CC;fontColor=#000000;" edge="1" parent="1" source="NzFtADgsl6NsJxW6FuMH-16">
          <mxGeometry relative="1" as="geometry">
            <mxPoint x="707" y="527" as="targetPoint" />
          </mxGeometry>
        </mxCell>
        <mxCell id="NzFtADgsl6NsJxW6FuMH-67" style="edgeStyle=none;rounded=0;orthogonalLoop=1;jettySize=auto;html=1;exitX=0;exitY=0;exitDx=0;exitDy=0;exitPerimeter=0;entryX=0.667;entryY=1;entryDx=0;entryDy=0;entryPerimeter=0;strokeColor=#00FF00;fontColor=#000000;" edge="1" parent="1" source="NzFtADgsl6NsJxW6FuMH-16" target="NzFtADgsl6NsJxW6FuMH-46">
          <mxGeometry relative="1" as="geometry" />
        </mxCell>
        <mxCell id="NzFtADgsl6NsJxW6FuMH-16" value="&lt;font color=&quot;#000000&quot;&gt;&lt;span style=&quot;caret-color: rgb(0, 0, 0);&quot;&gt;keepPara&lt;br&gt;&lt;/span&gt;&lt;/font&gt;" style="shape=cube;whiteSpace=wrap;html=1;boundedLbl=1;backgroundOutline=1;darkOpacity=0.05;darkOpacity2=0.1;fontColor=#67AB9F;" vertex="1" parent="1">
          <mxGeometry x="729" y="865" width="108" height="50" as="geometry" />
        </mxCell>
        <mxCell id="NzFtADgsl6NsJxW6FuMH-47" style="edgeStyle=none;rounded=0;orthogonalLoop=1;jettySize=auto;html=1;exitX=0;exitY=0;exitDx=0;exitDy=15;exitPerimeter=0;entryX=0;entryY=0;entryDx=108;entryDy=35;entryPerimeter=0;strokeColor=#0000CC;fontColor=#000000;" edge="1" parent="1" source="NzFtADgsl6NsJxW6FuMH-35" target="NzFtADgsl6NsJxW6FuMH-37">
          <mxGeometry relative="1" as="geometry" />
        </mxCell>
        <mxCell id="NzFtADgsl6NsJxW6FuMH-48" style="edgeStyle=none;rounded=0;orthogonalLoop=1;jettySize=auto;html=1;exitX=0;exitY=0;exitDx=0;exitDy=15;exitPerimeter=0;strokeColor=#0000CC;fontColor=#000000;" edge="1" parent="1" source="NzFtADgsl6NsJxW6FuMH-35" target="NzFtADgsl6NsJxW6FuMH-38">
          <mxGeometry relative="1" as="geometry" />
        </mxCell>
        <mxCell id="NzFtADgsl6NsJxW6FuMH-49" style="edgeStyle=none;rounded=0;orthogonalLoop=1;jettySize=auto;html=1;exitX=0;exitY=0;exitDx=0;exitDy=15;exitPerimeter=0;strokeColor=#0000CC;fontColor=#000000;" edge="1" parent="1" source="NzFtADgsl6NsJxW6FuMH-35" target="NzFtADgsl6NsJxW6FuMH-39">
          <mxGeometry relative="1" as="geometry" />
        </mxCell>
        <mxCell id="NzFtADgsl6NsJxW6FuMH-50" style="edgeStyle=none;rounded=0;orthogonalLoop=1;jettySize=auto;html=1;exitX=0;exitY=0;exitDx=44;exitDy=0;exitPerimeter=0;strokeColor=#0000CC;fontColor=#000000;" edge="1" parent="1" source="NzFtADgsl6NsJxW6FuMH-35" target="NzFtADgsl6NsJxW6FuMH-40">
          <mxGeometry relative="1" as="geometry" />
        </mxCell>
        <mxCell id="NzFtADgsl6NsJxW6FuMH-51" style="edgeStyle=none;rounded=0;orthogonalLoop=1;jettySize=auto;html=1;strokeColor=#0000CC;fontColor=#000000;" edge="1" parent="1" target="NzFtADgsl6NsJxW6FuMH-41">
          <mxGeometry relative="1" as="geometry">
            <mxPoint x="98" y="192" as="sourcePoint" />
          </mxGeometry>
        </mxCell>
        <mxCell id="NzFtADgsl6NsJxW6FuMH-52" style="edgeStyle=none;rounded=0;orthogonalLoop=1;jettySize=auto;html=1;exitX=0;exitY=0;exitDx=44;exitDy=0;exitPerimeter=0;strokeColor=#0000CC;fontColor=#000000;" edge="1" parent="1" source="NzFtADgsl6NsJxW6FuMH-35" target="NzFtADgsl6NsJxW6FuMH-42">
          <mxGeometry relative="1" as="geometry" />
        </mxCell>
        <mxCell id="NzFtADgsl6NsJxW6FuMH-53" style="edgeStyle=none;rounded=0;orthogonalLoop=1;jettySize=auto;html=1;exitX=0;exitY=0;exitDx=44;exitDy=0;exitPerimeter=0;strokeColor=#0000CC;fontColor=#000000;" edge="1" parent="1" source="NzFtADgsl6NsJxW6FuMH-35" target="NzFtADgsl6NsJxW6FuMH-43">
          <mxGeometry relative="1" as="geometry" />
        </mxCell>
        <mxCell id="NzFtADgsl6NsJxW6FuMH-54" style="edgeStyle=none;rounded=0;orthogonalLoop=1;jettySize=auto;html=1;exitX=0;exitY=0;exitDx=44;exitDy=0;exitPerimeter=0;entryX=0;entryY=0;entryDx=20;entryDy=50;entryPerimeter=0;strokeColor=#0000CC;fontColor=#000000;" edge="1" parent="1" source="NzFtADgsl6NsJxW6FuMH-35" target="NzFtADgsl6NsJxW6FuMH-44">
          <mxGeometry relative="1" as="geometry" />
        </mxCell>
        <mxCell id="NzFtADgsl6NsJxW6FuMH-55" style="edgeStyle=none;rounded=0;orthogonalLoop=1;jettySize=auto;html=1;entryX=0;entryY=0;entryDx=10;entryDy=40;entryPerimeter=0;strokeColor=#0000CC;fontColor=#000000;" edge="1" parent="1" target="NzFtADgsl6NsJxW6FuMH-45">
          <mxGeometry relative="1" as="geometry">
            <mxPoint x="126" y="192" as="sourcePoint" />
          </mxGeometry>
        </mxCell>
        <mxCell id="NzFtADgsl6NsJxW6FuMH-56" style="edgeStyle=none;rounded=0;orthogonalLoop=1;jettySize=auto;html=1;exitX=0;exitY=0;exitDx=98;exitDy=10;exitPerimeter=0;strokeColor=#0000CC;fontColor=#000000;" edge="1" parent="1" source="NzFtADgsl6NsJxW6FuMH-35" target="NzFtADgsl6NsJxW6FuMH-46">
          <mxGeometry relative="1" as="geometry" />
        </mxCell>
        <mxCell id="NzFtADgsl6NsJxW6FuMH-35" value="&lt;font color=&quot;#000000&quot;&gt;&lt;span style=&quot;caret-color: rgb(0, 0, 0);&quot;&gt;self&lt;/span&gt;&lt;/font&gt;" style="shape=cube;whiteSpace=wrap;html=1;boundedLbl=1;backgroundOutline=1;darkOpacity=0.05;darkOpacity2=0.1;fontColor=#67AB9F;" vertex="1" parent="1">
          <mxGeometry x="53" y="195" width="108" height="50" as="geometry" />
        </mxCell>
        <mxCell id="NzFtADgsl6NsJxW6FuMH-37" value="&lt;font color=&quot;#000000&quot;&gt;&lt;span style=&quot;caret-color: rgb(0, 0, 0);&quot;&gt;path&lt;/span&gt;&lt;/font&gt;" style="shape=cube;whiteSpace=wrap;html=1;boundedLbl=1;backgroundOutline=1;darkOpacity=0.05;darkOpacity2=0.1;fontColor=#67AB9F;" vertex="1" parent="1">
          <mxGeometry x="-255" y="158" width="108" height="50" as="geometry" />
        </mxCell>
        <mxCell id="NzFtADgsl6NsJxW6FuMH-38" value="&lt;font color=&quot;#000000&quot;&gt;depth&lt;/font&gt;" style="shape=cube;whiteSpace=wrap;html=1;boundedLbl=1;backgroundOutline=1;darkOpacity=0.05;darkOpacity2=0.1;fontColor=#67AB9F;" vertex="1" parent="1">
          <mxGeometry x="-239" y="88" width="108" height="50" as="geometry" />
        </mxCell>
        <mxCell id="NzFtADgsl6NsJxW6FuMH-39" value="&lt;font color=&quot;#000000&quot;&gt;st&lt;/font&gt;" style="shape=cube;whiteSpace=wrap;html=1;boundedLbl=1;backgroundOutline=1;darkOpacity=0.05;darkOpacity2=0.1;fontColor=#67AB9F;" vertex="1" parent="1">
          <mxGeometry x="-122" y="32" width="108" height="50" as="geometry" />
        </mxCell>
        <mxCell id="NzFtADgsl6NsJxW6FuMH-40" value="&lt;font color=&quot;#000000&quot;&gt;&lt;span style=&quot;caret-color: rgb(0, 0, 0);&quot;&gt;maxChild&lt;/span&gt;&lt;/font&gt;" style="shape=cube;whiteSpace=wrap;html=1;boundedLbl=1;backgroundOutline=1;darkOpacity=0.05;darkOpacity2=0.1;fontColor=#67AB9F;" vertex="1" parent="1">
          <mxGeometry x="-33" y="-10" width="108" height="50" as="geometry" />
        </mxCell>
        <mxCell id="NzFtADgsl6NsJxW6FuMH-41" value="&lt;font color=&quot;#000000&quot;&gt;&lt;span style=&quot;caret-color: rgb(0, 0, 0);&quot;&gt;logName&lt;/span&gt;&lt;/font&gt;" style="shape=cube;whiteSpace=wrap;html=1;boundedLbl=1;backgroundOutline=1;darkOpacity=0.05;darkOpacity2=0.1;fontColor=#67AB9F;" vertex="1" parent="1">
          <mxGeometry x="89" y="-51" width="108" height="50" as="geometry" />
        </mxCell>
        <mxCell id="NzFtADgsl6NsJxW6FuMH-42" value="&lt;font color=&quot;#000000&quot;&gt;&lt;span style=&quot;caret-color: rgb(0, 0, 0);&quot;&gt;savePath&lt;/span&gt;&lt;/font&gt;" style="shape=cube;whiteSpace=wrap;html=1;boundedLbl=1;backgroundOutline=1;darkOpacity=0.05;darkOpacity2=0.1;fontColor=#67AB9F;" vertex="1" parent="1">
          <mxGeometry x="219" y="-46" width="108" height="50" as="geometry" />
        </mxCell>
        <mxCell id="NzFtADgsl6NsJxW6FuMH-43" value="&lt;font color=&quot;#000000&quot;&gt;&lt;span style=&quot;caret-color: rgb(0, 0, 0);&quot;&gt;df_log&lt;/span&gt;&lt;/font&gt;" style="shape=cube;whiteSpace=wrap;html=1;boundedLbl=1;backgroundOutline=1;darkOpacity=0.05;darkOpacity2=0.1;fontColor=#67AB9F;" vertex="1" parent="1">
          <mxGeometry x="347" y="-18" width="108" height="50" as="geometry" />
        </mxCell>
        <mxCell id="NzFtADgsl6NsJxW6FuMH-44" value="&lt;font color=&quot;#000000&quot;&gt;&lt;span style=&quot;caret-color: rgb(0, 0, 0);&quot;&gt;log_format&lt;/span&gt;&lt;/font&gt;" style="shape=cube;whiteSpace=wrap;html=1;boundedLbl=1;backgroundOutline=1;darkOpacity=0.05;darkOpacity2=0.1;fontColor=#67AB9F;" vertex="1" parent="1">
          <mxGeometry x="460" y="10" width="108" height="50" as="geometry" />
        </mxCell>
        <mxCell id="NzFtADgsl6NsJxW6FuMH-45" value="&lt;font color=&quot;#000000&quot;&gt;&lt;span style=&quot;caret-color: rgb(0, 0, 0);&quot;&gt;rex&lt;/span&gt;&lt;/font&gt;" style="shape=cube;whiteSpace=wrap;html=1;boundedLbl=1;backgroundOutline=1;darkOpacity=0.05;darkOpacity2=0.1;fontColor=#67AB9F;" vertex="1" parent="1">
          <mxGeometry x="541" y="69" width="108" height="50" as="geometry" />
        </mxCell>
        <mxCell id="NzFtADgsl6NsJxW6FuMH-46" value="&lt;font color=&quot;#000000&quot;&gt;&lt;span style=&quot;caret-color: rgb(0, 0, 0);&quot;&gt;keepPrara&lt;/span&gt;&lt;/font&gt;" style="shape=cube;whiteSpace=wrap;html=1;boundedLbl=1;backgroundOutline=1;darkOpacity=0.05;darkOpacity2=0.1;fontColor=#67AB9F;" vertex="1" parent="1">
          <mxGeometry x="608" y="135" width="108" height="50" as="geometry" />
        </mxCell>
        <mxCell id="NzFtADgsl6NsJxW6FuMH-62" value="none" style="text;html=1;align=center;verticalAlign=middle;resizable=0;points=[];autosize=1;strokeColor=none;fillColor=none;fontColor=#000000;" vertex="1" parent="1">
          <mxGeometry x="103" y="-76" width="45" height="26" as="geometry" />
        </mxCell>
        <mxCell id="NzFtADgsl6NsJxW6FuMH-64" value="none" style="text;html=1;align=center;verticalAlign=middle;resizable=0;points=[];autosize=1;strokeColor=none;fillColor=none;fontColor=#000000;" vertex="1" parent="1">
          <mxGeometry x="366" y="-45" width="45" height="26" as="geometry" />
        </mxCell>
      </root>
    </mxGraphModel>
  </diagram>
</mxfile>
